<svg xmlns="http://www.w3.org/2000/svg" viewBox="0 0 16 16" width="16" height="16">
  <rect x="2" y="1" width="10" height="13" rx="1" fill="#EEF4FF"/>
  <polygon points="10,1 12,3 10,3" fill="#90B0D8"/>
  <polygon points="10,1 10,3 12,3" fill="#B8CCE8"/>
  <rect x="2" y="1" width="1.8" height="13" rx="0" fill="#3776AB"/>
  <rect x="2" y="1" width="1.8" height="1" rx="0.8" fill="#3776AB"/>
  <line x1="5" y1="4.5" x2="11.5" y2="4.5" stroke="#FFD343" stroke-width="0.9" stroke-linecap="round" opacity="0.85"/>
  <line x1="5" y1="7" x2="11.5" y2="7" stroke="#FFD343" stroke-width="0.9" stroke-linecap="round" opacity="0.85"/>
  <line x1="5" y1="9.5" x2="8.5" y2="9.5" stroke="#FFD343" stroke-width="0.9" stroke-linecap="round" opacity="0.85"/>
  <path d="M5.5 14 Q5.5 11 8 11 Q10.5 11 10.5 12.5 Q10.5 14 8 14" fill="none" stroke="#3776AB" stroke-width="1.2" stroke-linecap="round"/>
  <circle cx="5.5" cy="14" r="0.9" fill="#FFD343"/>
  <circle cx="12.6" cy="12.6" r="2.8" fill="#2CC36B" stroke="#FFFFFF" stroke-width="1.1"/>
</svg>
