<svg xmlns="http://www.w3.org/2000/svg" viewBox="0 0 16 16" width="16" height="16" opacity="0.2">
  <rect x="2" y="1" width="10" height="13" rx="1" fill="#F0F0F0"/>
  <polygon points="10,1 12,3 10,3" fill="#C8C8C8"/>
  <polygon points="10,1 10,3 12,3" fill="#E0E0E0"/>
  <path d="M5.5 5.5 Q4.5 5.5 4.5 6.5 Q4.5 7.5 3.5 7.5 Q4.5 7.5 4.5 8.5 Q4.5 9.5 5.5 9.5" fill="none" stroke="#CCA700" stroke-width="1" stroke-linecap="round" stroke-linejoin="round"/>
  <path d="M8.5 5.5 Q9.5 5.5 9.5 6.5 Q9.5 7.5 10.5 7.5 Q9.5 7.5 9.5 8.5 Q9.5 9.5 8.5 9.5" fill="none" stroke="#CCA700" stroke-width="1" stroke-linecap="round" stroke-linejoin="round"/>
  <line x1="3.5" y1="11.5" x2="8.5" y2="11.5" stroke="#888" stroke-width="0.7" stroke-linecap="round"/>
  <line x1="3.5" y1="12.5" x2="6.5" y2="12.5" stroke="#888" stroke-width="0.7" stroke-linecap="round"/>
</svg>
