<svg width="16" height="16" viewBox="0 0 16 16" xmlns="http://www.w3.org/2000/svg" fill="none">
  <defs>
    <linearGradient id="aacct_bg" x1="3" y1="1.5" x2="13" y2="14.5" gradientUnits="userSpaceOnUse">
      <stop stop-color="#0F172A"/>
      <stop offset="1" stop-color="#1E293B"/>
    </linearGradient>
    <linearGradient id="aacct_badge" x1="8" y1="4.2" x2="8" y2="10.9" gradientUnits="userSpaceOnUse">
      <stop stop-color="#67E8F9"/>
      <stop offset="1" stop-color="#2563EB"/>
    </linearGradient>
  </defs>
  <path d="M8 2.95c1.48 1.08 3.02 1.45 4.62 1.58v3.33c0 2.4-1.75 4.08-4.62 5.28-2.87-1.2-4.62-2.88-4.62-5.28V4.53c1.6-.13 3.14-.5 4.62-1.58Z" fill="url(#aacct_badge)" stroke="#BAE6FD" stroke-width=".65" stroke-linejoin="round"/>
  <path d="M6.1 7.72a1.9 1.9 0 1 1 3.34 1.23l1.84 1.84-.82.82-1.84-1.84A1.9 1.9 0 0 1 6.1 7.72Z" fill="#FBBF24"/>
  <circle cx="7.95" cy="7.72" r=".52" fill="#7C2D12"/>
</svg>
