<svg width="16" height="16" viewBox="0 0 16 16" xmlns="http://www.w3.org/2000/svg" fill="none">
  <path d="M4.15 3.7h7.7a.95.95 0 0 1 .95.95v6.7a.95.95 0 0 1-.95.95h-7.7a.95.95 0 0 1-.95-.95v-6.7a.95.95 0 0 1 .95-.95Z" stroke="#93C5FD" stroke-width=".95" stroke-linejoin="round"/>
  <path d="M5 5.05h6M5 10.95h3.35" stroke="#BFDBFE" stroke-width=".9" stroke-linecap="round" opacity=".95"/>
  <path d="M5.4 6.45h2.95M5.4 8.05h4.55M5.4 9.65h3.55" stroke="#E0F2FE" stroke-width=".82" stroke-linecap="round" opacity=".92"/>
  <path d="m12.45 3.45.33.8.8.33-.8.33-.33.8-.33-.8-.8-.33.8-.33.33-.8Z" fill="#FBBF24"/>
  <path d="m11.45 9.45.22.54.54.22-.54.22-.22.54-.22-.54-.54-.22.54-.22.22-.54Z" fill="#FDE68A"/>
  <path d="m3.35 4.8.18.45.45.18-.45.18-.18.45-.18-.45-.45-.18.45-.18.18-.45Z" fill="#FDE68A"/>
  <path d="m9.85 2.65.2.5.5.2-.5.2-.2.5-.2-.5-.5-.2.5-.2.2-.5Z" fill="#FBBF24"/>
  <path d="m3.95 11.8.16.38.38.16-.38.16-.16.38-.16-.38-.38-.16.38-.16.16-.38Z" fill="#FDE68A"/>
</svg>
