<svg width="16" height="16" viewBox="0 0 16 16" xmlns="http://www.w3.org/2000/svg" fill="none">
  <path d="M1.4 5.1c0-.72.58-1.3 1.3-1.3H6l1.1 1.2c.2.2.45.3.72.3h5.5c.72 0 1.3.58 1.3 1.3v.65l-1.15 5.25A1.3 1.3 0 0 1 12.18 14H2.95a1.3 1.3 0 0 1-1.27-1.56L2.3 8.9a1.3 1.3 0 0 1 1.28-1.06h11.04" fill="#2B4459"/>
  <path d="M1.4 5.1c0-.72.58-1.3 1.3-1.3H6l1.1 1.2c.2.2.45.3.72.3h5.5c.72 0 1.3.58 1.3 1.3v.65l-1.15 5.25A1.3 1.3 0 0 1 12.18 14H2.95a1.3 1.3 0 0 1-1.27-1.56L2.3 8.9a1.3 1.3 0 0 1 1.28-1.06h11.04" stroke="#93C5FD" stroke-width=".7" stroke-linejoin="round"/>
  <rect x="3.2" y="7.2" width="3" height="1.45" rx=".35" fill="#60A5FA"/>
  <rect x="6.65" y="7.2" width="3" height="1.45" rx=".35" fill="#38BDF8"/>
  <rect x="10.1" y="7.2" width="2.1" height="1.45" rx=".35" fill="#0EA5E9"/>
  <rect x="3.2" y="9.35" width="3" height="1.45" rx=".35" fill="#60A5FA"/>
  <rect x="6.65" y="9.35" width="3" height="1.45" rx=".35" fill="#38BDF8"/>
  <rect x="10.1" y="9.35" width="2.1" height="1.45" rx=".35" fill="#0EA5E9"/>
  <path d="M11.85 12.1c0-.58.47-1.05 1.05-1.05.23 0 .45.07.63.21.38.3.46.85.17 1.24l-.34.29-.16.75-.67-.41-.54.09.01-.59c-.1-.16-.15-.34-.15-.53Z" fill="#FBBF24"/>
</svg>
