<svg xmlns="http://www.w3.org/2000/svg" viewBox="0 0 16 16" width="16" height="16">
  <path d="M14.5 4H7.71l-.85-1.36A1 1 0 0 0 6 2H1.5A1.5 1.5 0 0 0 0 3.5v9A1.5 1.5 0 0 0 1.5 14h13a1.5 1.5 0 0 0 1.5-1.5v-7A1.5 1.5 0 0 0 14.5 4z" fill="#B45309" opacity="0.55"/>
  <path d="M0 6.3h16l-1.45 6.75A1.5 1.5 0 0 1 13.1 14.3H1.65A1.5 1.5 0 0 1 .2 13.05z" fill="#F59E0B"/>
  <path d="M4.4 8.05h2.35l-.55 1.25h1.25l-.62 1.45" fill="none" stroke="#FFF7ED" stroke-width="0.85" stroke-linecap="round" stroke-linejoin="round"/>
  <path d="M8.7 8.35h2.25M8.7 9.55h1.6M8.7 10.75h2.05" stroke="#FFF7ED" stroke-width="0.75" stroke-linecap="round"/>
  <circle cx="12.8" cy="5.1" r="1.1" fill="#FDE68A"/>
  <path d="M12.8 3.55v.65M12.8 5.98v.65M11.82 5.1h.65M13.93 5.1h.65" stroke="#FDE68A" stroke-width="0.5" stroke-linecap="round"/>
</svg>
