<svg xmlns="http://www.w3.org/2000/svg" viewBox="0 0 16 16" width="16" height="16">
  <!-- Cloud body (brighter) -->
  <path d="M12 6.5 A2 2 0 0 0 10 4.5 A3 3 0 0 0 4.2 6 A2.5 2.5 0 0 0 2 8.5 A2.5 2.5 0 0 0 4.5 11 L12 11 A2 2 0 0 0 14 9 A2 2 0 0 0 12 7 Z" fill="#B180D7" opacity="0.8"/>
  <path d="M12 6.5 A2 2 0 0 0 10 4.5 A3 3 0 0 0 4.2 6 A2.5 2.5 0 0 0 2 8.5 A2.5 2.5 0 0 0 4.5 11 L12 11 A2 2 0 0 0 14 9 A2 2 0 0 0 12 7 Z" fill="none" stroke="#1E1E2E" stroke-width="0.5"/>
  <!-- Cloud highlight -->
  <path d="M12 6.5 A2 2 0 0 0 10 4.5 A3 3 0 0 0 4.2 6 A2.5 2.5 0 0 0 2 8.5 A2.5 2.5 0 0 0 4.5 11 L12 11 A2 2 0 0 0 14 9 A2 2 0 0 0 12 7 Z" fill="white" opacity="0.15"/>
  <!-- Gear (spinning indicator) -->
  <polygon points="8,4.5 8.4,5.3 9.3,5.1 9.1,6 9.9,6.4 9.3,7 9.5,7.9 8.6,7.9 8.2,8.7 7.6,8.1 6.7,8.3 6.9,7.4 6.1,7 6.7,6.4 6.5,5.5 7.4,5.5 7.8,4.7" fill="white" opacity="0.95"/>
  <!-- Gear center hole -->
  <circle cx="8" cy="6.6" r="0.7" fill="#B180D7"/>
  <!-- Connection lines (active) -->
  <line x1="5" y1="13" x2="5" y2="11" stroke="#B180D7" stroke-width="0.8" stroke-linecap="round"/>
  <line x1="8" y1="14" x2="8" y2="11" stroke="#B180D7" stroke-width="0.8" stroke-linecap="round"/>
  <line x1="11" y1="13" x2="11" y2="11" stroke="#B180D7" stroke-width="0.8" stroke-linecap="round"/>
  <circle cx="5"  cy="13.5" r="1" fill="#B180D7"/>
  <circle cx="8"  cy="14.5" r="1" fill="#B180D7"/>
  <circle cx="11" cy="13.5" r="1" fill="#B180D7"/>
</svg>
