<svg xmlns="http://www.w3.org/2000/svg" viewBox="0 0 16 16" width="16" height="16">
  <!-- Draft folder - amber with pencil -->
  <path d="M14.5 4H7.71l-.85-1.36A1 1 0 0 0 6 2H1.5A1.5 1.5 0 0 0 0 3.5v9A1.5 1.5 0 0 0 1.5 14h13a1.5 1.5 0 0 0 1.5-1.5v-7A1.5 1.5 0 0 0 14.5 4z" fill="#E65100"/>
  <!-- Lighter top band -->
  <rect x="0" y="4" width="16" height="2.5" rx="0" fill="#F57C00" opacity="0.6"/>
  <!-- Pencil body (draft = editing in progress) -->
  <line x1="4.5" y1="12.5" x2="10.5" y2="6.5" stroke="white" stroke-width="1.3" stroke-linecap="round"/>
  <!-- Pencil tip -->
  <polygon points="3.5,13.5 4.5,12.5 5.5,13.5 4.5,14.5" fill="white" opacity="0.9"/>
  <!-- Pencil eraser top -->
  <line x1="10.5" y1="6.5" x2="11.8" y2="5.2" stroke="white" stroke-width="1.3" stroke-linecap="round"/>
</svg>
