<svg width="16" height="16" viewBox="0 0 16 16" xmlns="http://www.w3.org/2000/svg" fill="none">
  <path d="M1.5 4.4a1 1 0 0 1 1-1H6l1.1 1.2c.2.2.45.3.72.3H13.5a1 1 0 0 1 1 1v6.8a1.3 1.3 0 0 1-1.3 1.3H2.8a1.3 1.3 0 0 1-1.3-1.3V4.4Z" fill="#2B3340"/>
  <path d="M1.5 4.4a1 1 0 0 1 1-1H6l1.1 1.2c.2.2.45.3.72.3H13.5a1 1 0 0 1 1 1v6.8a1.3 1.3 0 0 1-1.3 1.3H2.8a1.3 1.3 0 0 1-1.3-1.3V4.4Z" stroke="#BFC7D5" stroke-width=".7" stroke-linejoin="round"/>
  <path d="m8 6.35.46-.77.94.14.4-.86.92.26.74-.6.74.6.92-.26.4.86.94-.14.46.77-.46.77.46.77-.94.14-.4.86-.92-.26-.74.6-.74-.6-.92.26-.4-.86-.94-.14-.46-.77.46-.77-.46-.77Z" fill="#F59E0B"/>
  <circle cx="8" cy="8.4" r="1.55" fill="#364152"/>
  <circle cx="8" cy="8.4" r=".8" fill="#F8FAFC"/>
</svg>
