<svg xmlns="http://www.w3.org/2000/svg" viewBox="0 0 16 16" width="16" height="16">
  <!-- Cloud body -->
  <path d="M13 9.5 A2.5 2.5 0 0 0 10.5 7 A2.5 2.5 0 0 0 5 7.2 A2 2 0 0 0 3 9.5 A2 2 0 0 0 5 11.5 L11 11.5 A2 2 0 0 0 13 9.5 Z" fill="#F5F543"/>
  <path d="M12 6.5 A2 2 0 0 0 10 4.5 A3 3 0 0 0 4.2 6 A2.5 2.5 0 0 0 2 8.5 A2.5 2.5 0 0 0 4.5 11 L12 11 A2 2 0 0 0 14 9 A2 2 0 0 0 12 7 Z" fill="#F5F543"/>
  <!-- Cloud outline -->
  <path d="M12 6.5 A2 2 0 0 0 10 4.5 A3 3 0 0 0 4.2 6 A2.5 2.5 0 0 0 2 8.5 A2.5 2.5 0 0 0 4.5 11 L12 11 A2 2 0 0 0 14 9 A2 2 0 0 0 12 7 Z" fill="none" stroke="#1E1E2E" stroke-width="0.5"/>
  <!-- Gear (small, centered) -->
  <polygon points="8,4.5 8.4,5.3 9.3,5.1 9.1,6 9.9,6.4 9.3,7 9.5,7.9 8.6,7.9 8.2,8.7 7.6,8.1 6.7,8.3 6.9,7.4 6.1,7 6.7,6.4 6.5,5.5 7.4,5.5 7.8,4.7" fill="white" opacity="0.9"/>
  <!-- Gear center hole -->
  <circle cx="8" cy="6.6" r="0.7" fill="#F5F543"/>
</svg>
