<svg xmlns="http://www.w3.org/2000/svg" viewBox="0 0 16 16" width="16" height="16">
  <!-- Shield - open/active (brighter) -->
  <path d="M8,1 L2,3.8 L2,9.8 Q2,14.5 8,15.8 Q14,14.5 14,9.8 L14,3.8 Z" fill="#3794FF"/>
  <!-- Shield - mid -->
  <path d="M8,2.2 L3.2,4.6 L3.2,9.8 Q3.2,13.5 8,14.7 Q12.8,13.5 12.8,9.8 L12.8,4.6 Z" fill="#5AADFF"/>
  <!-- Shield - top shine -->
  <path d="M8,2.2 L3.2,4.6 L3.2,8 Q5.5,6.8 8,5.5 Q10.5,6.8 12.8,8 L12.8,4.6 Z" fill="#A0D8FF" opacity="0.5"/>
  <!-- Inner border (white) -->
  <path d="M8,3 L4,5.2 L4,9.8 Q4,13 8,14.2 Q12,13 12,9.8 L12,5.2 Z"
        fill="none" stroke="#FFFFFF" stroke-width="0.6" opacity="0.7"/>
  <!-- Diamond gem (white) -->
  <polygon points="8,6 11,9.5 8,14 5,9.5" fill="#FFFFFF" opacity="0.92"/>
  <polygon points="8,6 11,9.5 8,9.5 5,9.5" fill="#D0EAFF"/>
  <line x1="8" y1="6" x2="8" y2="14" stroke="#A0CCEE" stroke-width="0.4"/>
  <line x1="5" y1="9.5" x2="11" y2="9.5" stroke="#A0CCEE" stroke-width="0.4"/>
</svg>
