<svg width="16" height="16" viewBox="0 0 16 16" xmlns="http://www.w3.org/2000/svg" fill="none">
  <path d="M1.5 4.5a1 1 0 0 1 1-1H6l1.1 1.2c.2.2.45.3.72.3H13.5a1 1 0 0 1 1 1v6.7a1.3 1.3 0 0 1-1.3 1.3H2.8A1.3 1.3 0 0 1 1.5 12.7V4.5Z" fill="#243447"/>
  <path d="M1.5 4.5a1 1 0 0 1 1-1H6l1.1 1.2c.2.2.45.3.72.3H13.5a1 1 0 0 1 1 1v6.7a1.3 1.3 0 0 1-1.3 1.3H2.8A1.3 1.3 0 0 1 1.5 12.7V4.5Z" stroke="#93C5FD" stroke-width=".7" stroke-linejoin="round"/>
  <rect x="3.1" y="6.35" width="3" height="1.45" rx=".35" fill="#60A5FA"/>
  <rect x="6.55" y="6.35" width="3" height="1.45" rx=".35" fill="#38BDF8"/>
  <rect x="10" y="6.35" width="3" height="1.45" rx=".35" fill="#0EA5E9"/>
  <rect x="3.1" y="8.5" width="3" height="1.45" rx=".35" fill="#60A5FA"/>
  <rect x="6.55" y="8.5" width="3" height="1.45" rx=".35" fill="#38BDF8"/>
  <rect x="10" y="8.5" width="3" height="1.45" rx=".35" fill="#0EA5E9"/>
  <path d="M11.9 11.8c0-.6.5-1.1 1.1-1.1.25 0 .47.07.66.22a1.02 1.02 0 0 1 .04 1.58l-.35.28-.18.83-.73-.44-.58.09.02-.65a1.06 1.06 0 0 1 .02-.8Z" fill="#FBBF24"/>
</svg>
