<svg width="16" height="16" viewBox="0 0 16 16" xmlns="http://www.w3.org/2000/svg" fill="none">
  <path d="M1.4 5.1c0-.72.58-1.3 1.3-1.3H6l1.1 1.2c.2.2.45.3.72.3h5.5c.72 0 1.3.58 1.3 1.3v.65l-1.1 5.2A1.3 1.3 0 0 1 12.22 14H2.95a1.3 1.3 0 0 1-1.27-1.56L2.3 8.9a1.3 1.3 0 0 1 1.28-1.06h11.02" fill="#344255"/>
  <path d="M1.4 5.1c0-.72.58-1.3 1.3-1.3H6l1.1 1.2c.2.2.45.3.72.3h5.5c.72 0 1.3.58 1.3 1.3v.65l-1.1 5.2A1.3 1.3 0 0 1 12.22 14H2.95a1.3 1.3 0 0 1-1.27-1.56L2.3 8.9a1.3 1.3 0 0 1 1.28-1.06h11.02" stroke="#BFC7D5" stroke-width=".7" stroke-linejoin="round"/>
  <path d="m8 6.95.46-.77.94.14.4-.86.92.26.74-.6.74.6.92-.26.4.86.94-.14.46.77-.46.77.46.77-.94.14-.4.86-.92-.26-.74.6-.74-.6-.92.26-.4-.86-.94-.14-.46-.77.46-.77-.46-.77Z" fill="#FBBF24"/>
  <circle cx="8" cy="9" r="1.55" fill="#364152"/>
  <circle cx="8" cy="9" r=".8" fill="#F8FAFC"/>
</svg>
