<svg xmlns="http://www.w3.org/2000/svg" viewBox="0 0 128 128" fill="none">
  <!-- 8-tooth gear: light blue filled -->
  <path
    d="M64,20
       L67.8,20.2 L74.4,4.9 L98.4,15.0 L92.3,30.3
       L95.1,32.9 L97.7,35.7 L113.2,29.6 L123.1,53.6 L107.8,60.2
       L108,64 L107.8,67.8 L123.1,74.4 L113.2,98.4 L97.7,92.3
       L95.1,95.1 L92.3,97.7 L98.4,113.2 L74.4,123.1 L67.8,107.8
       L64,108 L60.2,107.8 L53.6,123.1 L29.6,113.2 L35.7,97.7
       L32.9,95.1 L30.3,92.3 L14.8,98.4 L4.9,74.4 L20.2,67.8
       L20,64 L20.2,60.2 L4.9,53.6 L14.8,29.6 L30.3,35.7
       L32.9,32.9 L35.7,30.3 L29.6,14.8 L53.6,4.9 L60.2,20.2 Z"
    fill="none" stroke="#0057B8" stroke-width="6" stroke-linejoin="round"/>

  <!-- Lightning bolt: yellow filled -->
  <path
    d="M77.4,35.3 L54.6,61.7 Q50,67 57,67 L60,67 Q67,67 62.8,72.6
       L46.2,94.4 Q42,100 47.3,95.4 L88.7,59.6 Q94,55 87,55
       L80,55 Q73,55 75.4,48.4 L79.6,36.6 Q82,30 77.4,35.3 Z"
    fill="#FFB900" stroke="none"/>
</svg>
